<?xml version="1.0" encoding="iso-8859-1"?>
<!-- Generator: Adobe Illustrator 19.0.0, SVG Export Plug-In . SVG Version: 6.00 Build 0)  -->
<svg version="1.1" id="Layer_1" xmlns="http://www.w3.org/2000/svg" xmlns:xlink="http://www.w3.org/1999/xlink" x="0px" y="0px"
	 viewBox="0 0 512.001 512.001" style="enable-background:new 0 0 512.001 512.001;" xml:space="preserve">
<path style="fill:#546F7A;" d="M510.897,474.761L347.345,207.124c-1.358-2.223-3.768-3.577-6.364-3.577s-5.007,1.354-6.364,3.577
	l-51.266,83.893c-1.471,2.406-1.471,5.44,0,7.846l112.286,183.743c1.358,2.223,3.768,3.577,6.364,3.577h102.533
	c2.703,0,5.196-1.468,6.517-3.838C512.37,479.977,512.311,477.075,510.897,474.761z"/>
<path style="fill:#465A65;" d="M489.202,486.184h15.33c2.703,0,5.196-1.468,6.517-3.838c1.32-2.369,1.262-5.27-0.152-7.585
	L347.345,207.124c-1.358-2.223-3.768-3.577-6.364-3.577s-5.007,1.354-6.364,3.577l-7.973,13.047L489.202,486.184z"/>
<path style="fill:#EFE7E4;" d="M403.472,298.971l-56.127-91.847c-1.358-2.223-3.768-3.577-6.364-3.577s-5.007,1.354-6.364,3.577
	l-51.266,83.893c-1.471,2.406-1.471,5.44,0,7.846l2.623,4.293c1.972,3.228,6.028,4.473,9.458,2.903l22.721-10.389l16.79,20.59
	c1.418,1.739,3.539,2.748,5.777,2.748s4.359-1.009,5.777-2.748l16.791-20.59l30.727,14.049c2.987,1.364,6.515,0.61,8.689-1.859
	C404.877,305.389,405.19,301.781,403.472,298.971z"/>
<path style="fill:#D8D1D0;" d="M376.462,301.695l17.552,8.025c2.987,1.364,6.515,0.61,8.689-1.859
	c2.175-2.472,2.487-6.079,0.769-8.89l-56.127-91.847c-1.358-2.223-3.768-3.577-6.364-3.577s-5.007,1.354-6.364,3.577l-7.973,13.047
	L376.462,301.695z"/>
<path style="fill:#546F7A;" d="M408.364,474.761L211.098,151.955c-1.358-2.223-3.768-3.577-6.364-3.577s-5.006,1.354-6.364,3.577
	L1.103,474.761c-1.414,2.314-1.473,5.216-0.152,7.585c1.32,2.37,3.813,3.838,6.517,3.838H402c2.703,0,5.196-1.468,6.516-3.838
	C409.836,479.977,409.778,477.075,408.364,474.761z"/>
<path style="fill:#465A65;" d="M386.669,486.184H402c2.703,0,5.196-1.468,6.516-3.838c1.321-2.369,1.262-5.27-0.152-7.585
	L211.098,151.955c-1.358-2.223-3.768-3.577-6.364-3.577s-5.006,1.354-6.364,3.577l-7.973,13.047L386.669,486.184z"/>
<path style="fill:#F2464F;" d="M300.07,61.808l-92.676-35.499c-2.295-0.879-4.874-0.568-6.898,0.831
	c-2.023,1.4-3.231,3.71-3.231,6.177v70.998c0,2.467,1.208,4.776,3.231,6.177c1.264,0.874,2.744,1.323,4.237,1.323
	c0.897,0,1.799-0.162,2.661-0.492l92.676-35.499c2.894-1.108,4.806-3.896,4.806-7.008C304.877,65.704,302.965,62.916,300.07,61.808z
	"/>
<path style="fill:#D3333C;" d="M200.497,110.491c1.264,0.874,2.744,1.323,4.237,1.323c0.897,0,1.799-0.162,2.661-0.492
	l92.676-35.499c2.894-1.108,4.806-3.896,4.806-7.008c0-3.111-1.912-5.899-4.806-7.008l-18.29-7.006l-84.515,32.373v17.139
	C197.266,106.781,198.474,109.091,200.497,110.491z"/>
<path style="fill:#546F7A;" d="M204.733,163.378c-4.124,0-7.467-3.357-7.467-7.5V33.316c0-4.142,3.343-7.5,7.467-7.5
	s7.468,3.358,7.468,7.5v122.562C212.201,160.021,208.858,163.378,204.733,163.378z"/>
<path style="fill:#EFE7E4;" d="M294.987,289.233l-83.889-137.277c-1.358-2.223-3.768-3.577-6.364-3.577s-5.006,1.354-6.364,3.577
	l-83.89,137.277c-1.718,2.81-1.405,6.418,0.769,8.89c2.174,2.472,5.701,3.225,8.69,1.859l51.582-23.585l23.437,28.741
	c1.418,1.739,3.539,2.748,5.777,2.748c2.238,0,4.359-1.009,5.777-2.748l23.437-28.74l51.582,23.584
	c2.987,1.364,6.515,0.61,8.69-1.859C296.393,295.65,296.705,292.043,294.987,289.233z"/>
<path style="fill:#D8D1D0;" d="M267.977,291.957l17.551,8.025c2.987,1.364,6.515,0.61,8.69-1.859
	c2.174-2.472,2.486-6.079,0.769-8.89l-83.889-137.277c-1.358-2.223-3.768-3.577-6.364-3.577s-5.006,1.354-6.364,3.577l-7.973,13.047
	L267.977,291.957z"/>
<g>
</g>
<g>
</g>
<g>
</g>
<g>
</g>
<g>
</g>
<g>
</g>
<g>
</g>
<g>
</g>
<g>
</g>
<g>
</g>
<g>
</g>
<g>
</g>
<g>
</g>
<g>
</g>
<g>
</g>
</svg>
