<?xml version="1.0" encoding="iso-8859-1"?>
<!-- Generator: Adobe Illustrator 19.0.0, SVG Export Plug-In . SVG Version: 6.00 Build 0)  -->
<svg version="1.1" id="Layer_1" xmlns="http://www.w3.org/2000/svg" xmlns:xlink="http://www.w3.org/1999/xlink" x="0px" y="0px"
	 viewBox="0 0 512 512" style="enable-background:new 0 0 512 512;" xml:space="preserve">
<path style="fill:#EFE7E4;" d="M341.437,0c-76.987,0-139.621,51.408-139.621,114.595c0,23.559,8.552,46.041,24.769,65.237
	c-1.196,5.713-4.971,18.638-15.988,30.379c-3.145,3.352-4.022,8.268-2.233,12.526c1.797,4.275,5.943,7.103,10.562,7.201
	c0.713,0.016,1.459,0.025,2.237,0.025c12.78,0,34.073-2.307,51.876-15.398c20.768,9.608,44.091,14.626,68.397,14.626
	c76.987,0,139.622-51.408,139.622-114.595S418.424,0,341.437,0z"/>
<path style="fill:#D8D1D0;" d="M341.437,0c-4.563,0-9.072,0.186-13.524,0.54c70.665,5.601,126.097,54.613,126.097,114.056
	c0,59.47-55.483,108.499-126.194,114.062c4.499,0.353,9.042,0.533,13.621,0.533c76.987,0,139.622-51.408,139.622-114.595
	C481.058,51.408,418.424,0,341.437,0z"/>
<g>
	<path style="fill:#546F7A;" d="M397.29,86.056H285.199c-4.148,0-7.509-3.361-7.509-7.509c0-4.148,3.361-7.509,7.509-7.509H397.29
		c4.148,0,7.509,3.361,7.509,7.509S401.438,86.056,397.29,86.056z"/>
	<path style="fill:#546F7A;" d="M397.29,124.032H285.199c-4.148,0-7.509-3.361-7.509-7.509c0-4.148,3.361-7.509,7.509-7.509H397.29
		c4.148,0,7.509,3.361,7.509,7.509C404.8,120.671,401.438,124.032,397.29,124.032z"/>
	<path style="fill:#546F7A;" d="M352.139,162.008H285.2c-4.148,0-7.509-3.361-7.509-7.509s3.361-7.509,7.509-7.509h66.939
		c4.148,0,7.509,3.361,7.509,7.509C359.649,158.646,356.286,162.008,352.139,162.008z"/>
</g>
<path style="fill:#68B9D8;" d="M329.33,376.386c-0.068-0.002-0.137-0.002-0.205,0c-29.558,0.404-58.416,14.184-77.85,36.6
	c10.403,16.9,16.43,36.36,16.43,56.798v34.706c0,4.148-3.362,7.509-7.509,7.509h163.252c4.147,0,7.509-3.361,7.509-7.509v-29.495
	C430.958,422.296,384.417,377.139,329.33,376.386z"/>
<path style="fill:#3695B2;" d="M329.33,376.386c-0.068-0.002-0.137-0.002-0.205,0c-4.566,0.062-9.113,0.455-13.615,1.137
	c48.83,7.348,87.801,49.249,87.801,97.473v29.495c0,4.148-3.362,7.509-7.509,7.509h27.647c4.147,0,7.509-3.361,7.509-7.509v-29.495
	C430.958,422.296,384.417,377.139,329.33,376.386z"/>
<path style="fill:#68B9D8;" d="M149.426,355.073c-0.068-0.002-0.137-0.002-0.205,0c-64.115,0.876-118.28,53.408-118.28,114.711
	v34.706c0,4.148,3.362,7.509,7.509,7.509h221.746c4.147,0,7.509-3.361,7.509-7.509v-34.706
	C267.706,408.482,213.539,355.949,149.426,355.073z"/>
<path style="fill:#3695B2;" d="M149.426,355.073c-0.068-0.002-0.137-0.002-0.205,0c-4.705,0.064-9.355,0.414-13.935,1.018
	c57.836,7.623,104.344,56.889,104.344,113.693v34.706c0,4.148-3.362,7.509-7.509,7.509h28.076c4.147,0,7.509-3.361,7.509-7.509
	v-34.706C267.706,408.482,213.539,355.949,149.426,355.073z"/>
<path style="fill:#F2464F;" d="M185.13,456.854l-15.184-65.912c-0.808-3.507-3.93-5.991-7.529-5.991h-26.188
	c-3.599,0-6.721,2.485-7.529,5.991l-15.184,65.912c-0.626,2.713,0.258,5.553,2.313,7.433l28.278,25.881
	c1.477,1.351,3.346,2.027,5.216,2.027c1.87,0,3.74-0.676,5.216-2.027l28.278-25.881C184.872,462.407,185.756,459.567,185.13,456.854
	z"/>
<g>
	<path style="fill:#D3333C;" d="M185.13,456.854l-14.487-62.889h-21.32h-2.292l14.757,64.061l-26.401,24.163l8.719,7.98
		c1.476,1.351,3.346,2.027,5.216,2.027c1.87,0,3.74-0.676,5.216-2.027l28.278-25.882
		C184.872,462.407,185.756,459.567,185.13,456.854z"/>
	<path style="fill:#D3333C;" d="M145.809,355.174c-0.238,0.01-0.476,0.025-0.713,0.037c-0.964,0.048-1.929,0.103-2.894,0.175
		c-0.151,0.011-0.301,0.023-0.452,0.034c-7.156,0.559-14.298,1.773-21.313,3.634c-0.095,0.025-0.212,0.036-0.337,0.041
		c-2.932,0.781-5.822,1.671-8.668,2.662l16.719,32.207h42.346l12.464-24.216c0.558-1.084,2.596-4.627,4.227-8.002
		c-2.872-0.999-5.789-1.894-8.748-2.679c-0.076-0.005-0.164,0.004-0.23-0.014c-7.016-1.861-14.158-3.076-21.313-3.634
		c-0.15-0.011-0.301-0.023-0.452-0.034c-0.964-0.072-1.928-0.127-2.894-0.175c-0.238-0.011-0.476-0.027-0.714-0.037
		c-1.135-0.049-2.272-0.084-3.406-0.1c-0.001,0-0.003,0-0.005,0c-0.068-0.002-0.137-0.002-0.205,0c-0.002,0-0.003,0-0.005,0
		C148.08,355.088,146.945,355.124,145.809,355.174z"/>
</g>
<path style="fill:#AF273B;" d="M154.583,393.965h15.913l12.464-24.216c0.558-1.084,2.596-4.627,4.227-8.002
	c-2.872-0.999-5.789-1.894-8.748-2.679c-0.076-0.005-0.164,0.004-0.23-0.014c-4.029-1.069-8.101-1.912-12.191-2.554l-18.986,37.464
	h7.55V393.965z"/>
<path style="fill:#F2464F;" d="M360.798,463.752l-12.908-56.03c-0.808-3.508-3.931-5.993-7.531-5.993h-22.263
	c-3.6,0-6.723,2.486-7.531,5.993l-12.908,56.03c-0.626,2.714,0.258,5.555,2.314,7.436l24.039,22.001
	c1.477,1.353,3.347,2.027,5.217,2.027s3.742-0.676,5.217-2.027l24.039-22.001C360.539,469.308,361.423,466.467,360.798,463.752z"/>
<path style="fill:#D3333C;" d="M324.009,493.19c1.477,1.353,3.347,2.027,5.217,2.027s3.742-0.676,5.217-2.027l24.039-22.001
	c2.055-1.879,2.939-4.722,2.314-7.435l-12.253-53.189h-19.317h-4.203l12.542,54.44l-22.176,20.296L324.009,493.19z"/>
<path style="fill:#FFC89F;" d="M149.323,203.594c-33.357,0-60.496,27.138-60.496,60.496v45.597
	c0,33.357,27.138,60.496,60.496,60.496s60.496-27.138,60.496-60.496V264.09C209.82,230.731,182.681,203.594,149.323,203.594z"/>
<path style="fill:#F7B081;" d="M149.323,203.594c-4.655,0-9.181,0.546-13.538,1.546c26.859,6.167,46.959,30.247,46.959,58.95v45.597
	c0,28.703-20.1,52.783-46.959,58.95c4.355,1,8.883,1.546,13.538,1.546c33.357,0,60.496-27.138,60.496-60.496V264.09
	C209.82,230.731,182.681,203.594,149.323,203.594z"/>
<path d="M209.82,286.883V264.09c0-33.357-27.139-60.496-60.496-60.496s-60.496,27.138-60.496,60.496v22.7l7.509,0.097
	c46.313,0,63.184-31.272,63.184-31.272s11.794,31.121,42.789,31.266L209.82,286.883z"/>
<path style="fill:#D3333C;" d="M295.543,382.621c1.681,3.458,3.582,6.882,4.096,7.881l10.327,20.063h38.523l10.327-20.063
	c0.576-1.118,2.539-4.683,4.023-7.997c-2.808-1.011-5.666-1.911-8.574-2.682c-0.066-0.006-0.142,0.001-0.201-0.015
	c-6.016-1.597-12.139-2.638-18.275-3.12c-0.155-0.012-0.31-0.024-0.466-0.036c-0.803-0.059-1.605-0.105-2.408-0.145
	c-0.223-0.011-0.447-0.025-0.67-0.035c-0.972-0.042-1.944-0.072-2.917-0.085c-0.068-0.002-0.136-0.002-0.204,0
	c-0.011,0-0.022,0.001-0.032,0.001C317.635,376.547,306.282,378.718,295.543,382.621z"/>
<path style="fill:#AF273B;" d="M329.227,410.563h19.262l10.327-20.063c0.576-1.118,2.539-4.683,4.023-7.997
	c-2.808-1.011-5.666-1.911-8.574-2.682c-0.066-0.006-0.142,0.001-0.201-0.015c-3.955-1.049-7.956-1.856-11.976-2.426l-17.064,33.183
	H329.227z"/>
<path style="fill:#FFC89F;" d="M329.227,247.656c-28.97,0-52.538,23.568-52.538,52.538v38.748c0,28.97,23.569,52.539,52.538,52.539
	c28.97,0,52.538-23.569,52.538-52.539v-38.748C381.765,271.224,358.197,247.656,329.227,247.656z"/>
<path style="fill:#F7B081;" d="M329.227,247.656c-4.746,0-9.342,0.644-13.718,1.828c22.337,6.048,38.821,26.486,38.821,50.709
	v38.748c0,24.224-16.484,44.66-38.821,50.71c4.375,1.185,8.972,1.828,13.718,1.828c28.97,0,52.538-23.569,52.538-52.539v-38.748
	C381.765,271.224,358.197,247.656,329.227,247.656z"/>
<path d="M381.765,319.564v-19.371c0-28.97-23.568-52.538-52.538-52.538s-52.538,23.568-52.538,52.538v19.374h7.509
	c39.358,0,53.696-26.575,53.696-26.575s10.022,26.447,36.363,26.57L381.765,319.564z"/>
<g>
</g>
<g>
</g>
<g>
</g>
<g>
</g>
<g>
</g>
<g>
</g>
<g>
</g>
<g>
</g>
<g>
</g>
<g>
</g>
<g>
</g>
<g>
</g>
<g>
</g>
<g>
</g>
<g>
</g>
</svg>
